<svg width="20" height="22" viewBox="0 0 20 22" fill="none" xmlns="http://www.w3.org/2000/svg">
<path d="M4.5 5H15.5M4.5 9H10" stroke="#3E3D3D" stroke-linecap="round" stroke-linejoin="round"/>
<path d="M11 15.5098C10.7239 15.5098 10.5 15.7337 10.5 16.0098C10.5 16.286 10.7239 16.5098 11 16.5098L11 15.5098ZM18.7766 16.5098C19.0528 16.5098 19.2766 16.286 19.2766 16.0098C19.2766 15.7337 19.0528 15.5098 18.7766 15.5098L18.7766 16.5098ZM11 16.5098L18.7766 16.5098L18.7766 15.5098L11 15.5098L11 16.5098Z" fill="#20D95F"/>
<path d="M15.3901 12C15.3901 11.7239 15.1663 11.5 14.8901 11.5C14.614 11.5 14.3901 11.7239 14.3901 12L15.3901 12ZM14.3901 20.0196C14.3901 20.2957 14.614 20.5196 14.8901 20.5196C15.1663 20.5196 15.3901 20.2957 15.3901 20.0196L14.3901 20.0196ZM14.3901 12L14.3901 20.0196L15.3901 20.0196L15.3901 12L14.3901 12Z" fill="#20D95F"/>
<path fill-rule="evenodd" clip-rule="evenodd" d="M3 1H17C18.1046 1 19 1.89543 19 3V12H20V3C20 1.34315 18.6569 0 17 0H3C1.34315 0 0 1.34315 0 3V19C0 20.6569 1.34315 22 3 22H11V21H3C1.89543 21 1 20.1046 1 19V3C1 1.89543 1.89543 1 3 1Z" fill="#3E3D3D"/>
</svg>
